<svg xmlns="http://www.w3.org/2000/svg" id="icon" version="1.1" viewBox="0 0 512 512" >
<g id="surface1">
<path d="M 252.933594 392.773438 L 252.933594 428.90625 C 252.933594 440.558594 262.414062 450.039062 274.066406 450.039062 C 285.703125 450.039062 295.171875 440.585938 295.199219 428.953125 L 295.199219 357.175781 C 295.199219 357.15625 295.199219 357.144531 295.199219 357.125 L 295.199219 356.640625 C 295.199219 345.289062 286.207031 336 274.972656 335.527344 C 274.113281 335.542969 108.398438 335.507812 108.398438 335.507812 L 108.398438 490.867188 C 108.398438 502.519531 117.878906 512 129.53125 512 C 141.175781 512 150.644531 502.539062 150.664062 490.90625 L 150.664062 465.039062 C 150.664062 465.027344 150.667969 465.015625 150.667969 465.003906 L 150.667969 392.773438 C 150.667969 384.488281 157.382812 377.773438 165.667969 377.773438 L 237.9375 377.773438 C 246.21875 377.773438 252.933594 384.488281 252.933594 392.773438 Z M 252.933594 392.773438 " style=" stroke:none;fill-rule:nonzero;fill:rgb(0%,0%,0%);fill-opacity:1;" />
<path d="M 165.667969 109.898438 C 195.964844 109.898438 220.617188 85.25 220.617188 54.949219 C 220.617188 24.648438 195.964844 0 165.667969 0 C 135.367188 0 110.714844 24.648438 110.714844 54.949219 C 110.714844 85.25 135.367188 109.898438 165.667969 109.898438 Z M 165.667969 109.898438 " style=" stroke:none;fill-rule:nonzero;fill:rgb(0%,0%,0%);fill-opacity:1;" />
<path d="M 108.398438 284.238281 C 108.398438 284.292969 108.398438 284.347656 108.398438 284.402344 C 108.398438 284.453125 108.398438 284.507812 108.398438 284.5625 L 108.398438 305.507812 L 222.933594 305.507812 L 222.933594 284.804688 C 222.933594 284.671875 222.933594 284.535156 222.933594 284.402344 C 222.933594 284.265625 222.933594 284.132812 222.933594 283.996094 L 222.933594 227.101562 C 222.933594 221.035156 226.585938 215.5625 232.191406 213.242188 C 237.796875 210.921875 244.25 212.203125 248.539062 216.492188 L 269.707031 237.660156 C 272.519531 240.472656 274.101562 244.289062 274.101562 248.265625 C 274.101562 252.242188 272.519531 256.058594 269.707031 258.871094 L 259.121094 269.457031 C 255.191406 273.386719 253 278.59375 252.933594 284.140625 L 252.933594 284.65625 C 253 290.207031 255.191406 295.414062 259.121094 299.34375 C 262.859375 303.078125 267.75 305.246094 272.988281 305.507812 L 274.066406 305.507812 C 274.371094 305.507812 274.671875 305.511719 274.972656 305.515625 C 280.277344 305.292969 285.234375 303.121094 289.007812 299.34375 L 325.144531 263.210938 C 329.136719 259.21875 331.335938 253.910156 331.335938 248.269531 C 331.335938 242.621094 329.136719 237.316406 325.144531 233.324219 L 259.261719 167.445312 C 244.589844 152.773438 213.519531 139.902344 192.765625 139.902344 L 138.566406 139.902344 C 117.8125 139.902344 86.738281 152.773438 72.070312 167.445312 L 6.1875 233.324219 C 2.199219 237.316406 0 242.621094 0 248.269531 C 0 253.914062 2.199219 259.21875 6.1875 263.210938 L 42.324219 299.34375 C 46.3125 303.335938 51.621094 305.535156 57.265625 305.535156 C 62.910156 305.535156 68.21875 303.335938 72.207031 299.34375 C 76.175781 295.378906 78.371094 290.109375 78.398438 284.503906 L 78.398438 284.296875 C 78.371094 278.691406 76.175781 273.425781 72.210938 269.460938 L 61.625 258.871094 C 58.808594 256.058594 57.230469 252.242188 57.230469 248.269531 C 57.230469 244.289062 58.8125 240.472656 61.625 237.660156 L 82.792969 216.496094 C 87.085938 212.207031 93.53125 210.921875 99.140625 213.242188 C 104.742188 215.566406 108.398438 221.035156 108.398438 227.101562 Z M 108.398438 284.238281 " style=" stroke:none;fill-rule:nonzero;fill:rgb(0%,0%,0%);fill-opacity:1;" />
<path d="M 487 263.773438 L 470.644531 263.773438 C 456.894531 263.773438 445.644531 275.023438 445.644531 288.773438 L 445.644531 357.171875 C 445.644531 365.457031 438.929688 372.171875 430.644531 372.171875 L 350.203125 372.171875 C 336.453125 372.171875 325.207031 383.417969 325.199219 397.164062 L 325.199219 465.039062 C 325.199219 473.324219 318.484375 480.039062 310.199219 480.039062 L 195.667969 480.039062 C 181.917969 480.039062 180.667969 487.230469 180.664062 496.019531 C 180.664062 504.808594 181.914062 512 195.664062 512 L 481.835938 512 C 498.46875 512 512 498.46875 512 481.835938 L 512 288.773438 C 512 275.023438 500.75 263.773438 487 263.773438 Z M 487 263.773438 " style=" stroke:none;fill-rule:nonzero;fill:rgb(0%,0%,0%);fill-opacity:1;" />
</g>
</svg>