<svg height="496pt" viewBox="0 0 496.00089 496" width="496pt" xmlns="http://www.w3.org/2000/svg"><path d="m401.769531 134.335938c8.632813-7.34375 14.230469-18.144532 14.230469-30.335938 0-22.054688-17.941406-40-40-40-16.984375 0-31.4375 10.6875-37.230469 25.664062-3.449219-.976562-7.007812-1.664062-10.769531-1.664062-3.757812 0-7.320312.6875-10.765625 1.664062-5.792969-14.976562-20.25-25.664062-37.234375-25.664062-22.054688 0-40 17.945312-40 40 0 12.191406 5.601562 22.992188 14.234375 30.335938-17.9375 9.34375-30.234375 28.082031-30.234375 49.664062v48c0 4.425781 3.578125 8 8 8h40v16c0 4.425781 3.578125 8 8 8h96c4.425781 0 8-3.574219 8-8v-16h40c4.425781 0 8-3.574219 8-8v-48c0-21.582031-12.296875-40.320312-30.230469-49.664062zm-25.769531-54.335938c13.234375 0 24 10.769531 24 24 0 13.234375-10.765625 24-24 24-2.824219 0-5.542969-.664062-8.160156-1.625-.488282-11.824219-6.109375-22.230469-14.710938-29.246094 2.96875-9.871094 12.039063-17.128906 22.871094-17.128906zm-24 48c0 13.234375-10.765625 24-24 24-13.230469 0-24-10.765625-24-24 0-13.230469 10.769531-24 24-24 13.234375 0 24 10.769531 24 24zm-96-24c0-13.230469 10.769531-24 24-24 10.832031 0 19.90625 7.257812 22.882812 17.128906-8.601562 7.015625-14.234374 17.421875-14.714843 29.246094-2.625.960938-5.34375 1.625-8.167969 1.625-13.230469 0-24-10.765625-24-24zm-16 120v-40c0-22.054688 17.945312-40 40-40 4.296875 0 8.496094.738281 12.511719 2.0625 2.417969 4.730469 5.714843 8.867188 9.722656 12.273438-17.9375 9.34375-30.234375 28.082031-30.234375 49.664062v16zm128 24h-80v-40c0-22.054688 17.945312-40 40-40 22.058594 0 40 17.945312 40 40zm48-24h-32v-16c0-21.582031-12.296875-40.320312-30.230469-49.664062 4.007813-3.40625 7.304688-7.550782 9.71875-12.273438 4.015625-1.324219 8.214844-2.0625 12.511719-2.0625 22.058594 0 40 17.945312 40 40zm0 0"/><path d="m488 136h-11.542969c-3.945312-18.253906-11.328125-35.832031-21.640625-51.503906l14.839844-14.839844c3.128906-3.128906 3.128906-8.183594 0-11.3125l-32-32c-3.128906-3.128906-8.183594-3.128906-11.3125 0l-14.839844 14.839844c-15.671875-10.3125-33.246094-17.6875-51.503906-21.640625v-11.542969c0-4.421875-3.574219-8-8-8h-48c-4.421875 0-8 3.578125-8 8v11.542969c-18.304688 3.945312-35.886719 11.328125-51.511719 21.625l-14.832031-14.832031c-3.128906-3.128907-8.183594-3.128907-11.3125 0l-32 32c-3.125 3.128906-3.125 8.183593 0 11.3125l14.832031 14.832031c-.75 1.136719-1.367187 2.359375-2.085937 3.511719h-31.089844c-61.160156 0-111.015625 49.265624-111.984375 110.191406l-55.261719 118.433594c-1.160156 2.480468-.96875 5.375.496094 7.679687 1.460938 2.304687 4.015625 3.703125 6.75 3.703125h48v96c0 4.425781 3.578125 8 8 8h80v64h16v-72c0-4.421875-3.574219-8-8-8h-80v-96c0-4.421875-3.574219-8-8-8h-43.4375l50.6875-108.617188c.496094-1.0625.75-2.214843.75-3.382812 0-52.9375 43.066406-96 96-96h22.464844c-4.769532 10.25-8.535156 20.960938-10.921875 32h-11.542969c-4.421875 0-8 3.578125-8 8v48c0 4.425781 3.578125 8 8 8h11.542969c3.945312 18.257812 11.328125 35.832031 21.640625 51.503906l-14.839844 14.839844c-3.125 3.128906-3.125 8.183594 0 11.3125l32 32c3.128906 3.128906 8.183594 3.128906 11.3125 0l14.839844-14.839844c14.136718 9.304688 29.863281 16.070313 46.199218 20.230469l-33.964843 73.601563c-.480469 1.046874-.730469 2.191406-.730469 3.351562v104h16v-102.238281l27.410156-59.386719c1.3125.953125 2.839844 1.625 4.589844 1.625h48c4.425781 0 8-3.574219 8-8v-11.542969c18.304688-3.945312 35.890625-11.328125 51.511719-21.625l14.832031 14.832031c3.128906 3.128907 8.183594 3.128907 11.3125 0l32-32c3.128906-3.128906 3.128906-8.183593 0-11.3125l-14.832031-14.832031c10.296875-15.625 17.679687-33.207031 21.625-51.511719h11.550781c4.425781 0 8-3.574218 8-8v-48c0-4.429687-3.574219-8.007812-8-8.007812zm-8 48h-10.160156c-3.902344 0-7.238282 2.824219-7.886719 6.671875-3.503906 20.816406-11.566406 40.015625-23.96875 57.082031-2.320313 3.175782-1.96875 7.574219.816406 10.359375l13.886719 13.886719-20.6875 20.6875-13.886719-13.886719c-2.777343-2.777343-7.175781-3.144531-10.359375-.816406-17.066406 12.398437-36.265625 20.472656-57.082031 23.96875-3.847656.648437-6.671875 3.984375-6.671875 7.886719v10.160156h-32v-10.160156c0-3.902344-2.824219-7.238282-6.671875-7.886719-20.457031-3.441406-40.183594-11.738281-57.0625-23.992187-3.183594-2.304688-7.578125-1.953126-10.359375.824218l-13.90625 13.902344-20.6875-20.6875 13.90625-13.902344c2.78125-2.785156 3.125-7.167968.820312-10.359375-12.253906-16.875-20.550781-36.609375-23.988281-57.066406-.648437-3.847656-3.984375-6.671875-7.890625-6.671875h-10.160156v-32h10.160156c3.90625 0 7.242188-2.824219 7.890625-6.671875 3.503907-20.816406 11.566407-40.015625 23.964844-57.078125 2.320313-3.175781 1.96875-7.578125-.816406-10.363281l-13.886719-13.886719 20.6875-20.6875 13.890625 13.886719c2.78125 2.785156 7.183594 3.152343 10.359375.816406 17.0625-12.398437 36.261719-20.472656 57.078125-23.96875 3.847656-.644531 6.671875-3.984375 6.671875-7.886719v-10.160156h32v10.160156c0 3.902344 2.824219 7.242188 6.671875 7.886719 20.457031 3.441406 40.183594 11.738281 57.066406 23.992187 3.191407 2.320313 7.582031 1.960938 10.359375-.824218l13.902344-13.902344 20.6875 20.6875-13.902344 13.90625c-2.785156 2.78125-3.128906 7.167969-.824218 10.359375 12.257812 16.871094 20.550781 36.605469 23.992187 57.0625.648437 3.847656 3.984375 6.671875 7.886719 6.671875h10.160156zm0 0"/></svg>