<svg id="Layer_35" enable-background="new 0 0 64 64"  viewBox="0 0 64 64" id="icon" xmlns="http://www.w3.org/2000/svg"><path d="m17 25h5c2.757 0 5 2.243 5 5v8h2v-8c0-2.757 2.243-5 5-5h12.749c2.814 0 5.169-2.174 5.249-4.845.041-1.367-.459-2.658-1.409-3.637-.951-.979-2.225-1.518-3.589-1.518h-1.154l.084-1.139c.048-.33.07-.604.07-.861 0-3.309-2.691-6-6-6s-6 2.691-6 6h-2c0-2.31.99-4.388 2.56-5.849-1.649-2.571-4.469-4.151-7.56-4.151-4.962 0-9 4.038-9 9 0 .366.026.731.07 1.092 1.216.187 2.37.682 3.344 1.474 1.643 1.337 2.586 3.317 2.586 5.434h-2c0-1.512-.674-2.927-1.848-3.882-1.176-.956-2.722-1.322-4.239-1.004-1.881.392-3.407 1.918-3.799 3.799-.317 1.519.049 3.064 1.004 4.239.955 1.174 2.37 1.848 3.882 1.848zm25-6h2v-2h2v2h2v2h-2v2h-2v-2h-2zm-8-4h2v-2h2v2h2v2h-2v2h-2v-2h-2zm-2 6h-2v2h-2v-2h-2v-2h2v-2h2v2h2zm-8-14h2v-2h2v2h2v2h-2v2h-2v-2h-2z"/><path d="m11.423 56h5.077c.827 0 1.5-.673 1.5-1.5s-.673-1.5-1.5-1.5h-.5-7v-4h2v2h5 .5 6.5v-2h2v4h-5.351c.218.456.351.961.351 1.5 0 .801-.281 1.531-.735 2.121l7.794-1.461c.592-.565.941-1.334.941-2.16 0-4.681-2.945-8.678-7.074-10.263-.348 1.854-1.973 3.263-3.926 3.263s-3.578-1.409-3.926-3.263c-4.129 1.585-7.074 5.582-7.074 10.263 0 .826.349 1.595.942 2.16z"/><path d="m20.478 59.731-14.388-2.697c-.122-.022-.245-.034-.369-.034h-.721c-1.103 0-2 .897-2 2s.897 2 2 2h15 .36c.353 0 .64-.287.64-.64 0-.307-.219-.571-.522-.629z"/><path d="m15.019 42.188c.097 1.013.942 1.812 1.981 1.812s1.884-.799 1.981-1.812c-.644-.118-1.304-.188-1.981-.188s-1.337.07-1.981.188z"/><circle cx="17" cy="36" r="4"/><path d="m29 57h-.721c-.124 0-.247.012-.368.034l-6.085 1.141c.712.478 1.174 1.283 1.174 2.185 0 .222-.036.434-.087.64h5.087 1c1.103 0 2-.897 2-2s-.897-2-2-2z"/><path d="m38 57c-1.847 0-3.643.732-5.001 2.01-.002.728-.212 1.402-.555 1.99h12.084c-1.236-2.431-3.739-4-6.528-4z"/><path d="m54 57c-2.789 0-5.292 1.569-6.527 4h13.055c-1.236-2.431-3.739-4-6.528-4z"/><path d="m54 31c-4.962 0-9 4.037-9 9v1 3.356c-1.651-2.044-4.174-3.356-7-3.356h-9v1c0 4.963 4.038 9 9 9h7v10h2v-9h3c3.314 0 6-2.686 6-6h-4c-2.088 0-3.925 1.068-5 2.686v-7.686h7c4.962 0 9-4.037 9-9v-1z"/></svg>